<?xml version="1.0" encoding="utf-8"?>
<!-- Generator: Adobe Illustrator 25.0.1, SVG Export Plug-In . SVG Version: 6.00 Build 0)  -->
<svg version="1.1" id="zusy-logo" xmlns="http://www.w3.org/2000/svg" xmlns:xlink="http://www.w3.org/1999/xlink" x="0px" y="0px"
	 viewBox="0 0 66 72" style="enable-background:new 0 0 66 72;" xml:space="preserve">
<style type="text/css">
	.st0{fill-rule:evenodd;clip-rule:evenodd;fill:#07F5B7;}
</style>
<path id="z_x5F_middlebottom-path" class="st0" d="M50.2,71.1c-0.1-0.4-2.3-2.1-4.9-3.9c-3.9-2.8-5.4-3.4-9-3.6
	c-5.7-0.5-9.6,0.8-13.2,3.9c-2.2,2-3.4,2.6-4.5,2.2c-0.8-0.3-2-0.5-2.4-0.5c-0.5,0-2.4-1.5-4.3-3.4c-7.6-7.8-11-11.6-11-12.2
	c0.1-1.6,1.8-0.2,7.1,5.6l5.6,6.3l7.7-8c4.2-4.4,11.9-12.4,17-17.8c24.1-25,22.6-23.5,24.1-22.6c0.8,0.5,1.4,1.1,1.4,1.4
	c0,0.4-12.5,14-19.1,20.6c-14,14.2-27,28.1-26.2,28.1c0.4,0,1.6-1.1,2.8-2.3c3-3.1,6.1-4.6,11-5c5.1-0.5,11,1.8,14,5.2l1.9,2.3
	l6.3-6.3c3.5-3.4,6.4-6.8,6.4-7.5c0-0.7-1.4-2.3-3-3.6c-3.3-2.6-3.9-4.6-1.5-4.6c0.8,0,1.5,0.3,1.5,0.8c0,0.4,1.6,2.5,3.8,4.5
	c2,2.1,3.8,4.1,3.8,4.6c0,0.4-1.8,2.7-4,5c-2.2,2.2-5.4,5.8-7.1,7.7C51.1,71.7,50.5,72.2,50.2,71.1"/>
<path id="zusy_x5F_top-path" class="st0" d="M22.1,28.6C14.8,27,10,24.2,2,16.8c-3.9-3.6-1.5-3.1,2.7,0.5c7,6,16.7,10,24.7,10
	c3.5,0.1,14.6-3.7,18.1-6c3.2-2.2,9.7-8,9.7-8.8c0-0.3-2.6-3.1-5.8-6.3C48.1,3.1,45.7,0.3,46,0c0.4-0.4,14.8,13.7,14.8,14.5
	c0.1,0.8-7.9,7.2-11.9,9.4C39.4,29.6,32.2,30.8,22.1,28.6"/>
</svg>
