<?xml version="1.0" encoding="utf-8"?>
<!DOCTYPE svg PUBLIC "-//W3C//DTD SVG 1.1//EN" "http://www.w3.org/Graphics/SVG/1.1/DTD/svg11.dtd">
<svg version="1.1" xmlns="http://www.w3.org/2000/svg" xmlns:xlink="http://www.w3.org/1999/xlink" x="0px" y="0px" width="98px" height="108px" viewBox="0 0 980 1080" preserveAspectRatio="xMidYMid meet">
<g id="layer101" fill="#07f5b7" stroke="#07f5b7" stroke-width="1" fill-rule="evenodd">
<path d="M727 1012 C726 1007,696 984,661 960 C609 923,589 915,541 912 C465 906,413 922,365 964 C336 990,320 998,305 993 C294 989,279 986,273 986 C266 986,241 966,216 940 C115 836,69 786,69 778 C70 757,93 775,164 853 L239 937 342 831 C398 772,501 666,569 594 C890 260,870 280,891 292 C901 299,910 307,910 310 C910 316,743 497,655 585 C468 774,295 960,306 960 C311 960,327 946,343 929 C383 887,424 868,489 862 C557 856,636 886,675 932 L701 963 785 879 C832 833,870 788,870 779 C870 770,852 748,830 731 C786 696,778 670,810 670 C821 670,830 674,830 680 C830 686,852 713,880 740 C907 768,930 795,930 802 C930 808,906 838,877 869 C848 899,805 946,782 972 C739 1020,731 1026,727 1012 " />
<path d="M353 445 C256 423,191 386,85 288 C33 240,65 247,121 295 C214 375,344 428,450 429 C497 430,645 380,691 349 C734 319,820 242,820 232 C820 228,785 190,743 148 C700 105,668 67,672 64 C677 59,869 247,869 257 C870 268,764 353,711 383 C584 458,487 474,353 445 " />
</g>

</svg>